Input #0, mov,mp4,m4a,3gp,3g2,mj2, from '/home/hbattu/projects/huberman-gpt/huberman-audio/mp3/tmppzi083n8.mp4':
  Metadata:
    major_brand     : dash
    minor_version   : 0
    compatible_brands: iso6mp41
    creation_time   : 2021-07-26T22:27:32.000000Z
  Duration: 03:03:18.39, start: 0.000000, bitrate: 129 kb/s
    Stream #0:0(und): Audio: aac (LC) (mp4a / 0x6134706D), 44100 Hz, stereo, fltp, 0 kb/s (default)
    Metadata:
      creation_time   : 2021-07-26T22:27:32.000000Z
      handler_name    : ISO Media file produced by Google Inc.
Stream mapping:
  Stream #0:0 -> #0:0 (aac (native) -> mp3 (libmp3lame))
Press [q] to stop, [?] for help
[graph_0_in_0_0 @ 0x558581379440] tb:1/44100 samplefmt:fltp samplerate:44100 chlayout:0x3
Output #0, mp3, to '../huberman-audio/mp3/VRvn3Oj5r3E.mp3':
  Metadata:
    major_brand     : dash
    minor_version   : 0
    compatible_brands: iso6mp41
    TSSE            : Lavf58.29.100
    Stream #0:0(und): Audio: mp3 (libmp3lame), 44100 Hz, stereo, fltp, delay 1105 (default)
    Metadata:
      creation_time   : 2021-07-26T22:27:32.000000Z
      handler_name    : ISO Media file produced by Google Inc.
      encoder         : Lavc58.54.100 libmp3lame
No more output streams to write to, finishing.
size=  171851kB time=03:03:18.38 bitrate= 128.0kbits/s speed=85.5x    
[AVIOContext @ 0x558581260900] Statistics: 0 seeks, 258 writeouts
video:0kB audio:171850kB subtitle:0kB other streams:0kB global headers:0kB muxing overhead: 0.000197%
Input file #0 (/home/hbattu/projects/huberman-gpt/huberman-audio/mp3/tmppzi083n8.mp4):
  Input stream #0:0 (audio): 473661 packets read (175974191 bytes); 473661 frames decoded (485028864 samples); 
  Total: 473661 packets (175974191 bytes) demuxed
Output file #0 (../huberman-audio/mp3/VRvn3Oj5r3E.mp3):
  Output stream #0:0 (audio): 421032 frames encoded (485028864 samples); 421033 packets muxed (175974609 bytes); 
  Total: 421033 packets (175974609 bytes) muxed
[AVIOContext @ 0x5585812919c0] Statistics: 2 seeks, 673 writeouts
[AVIOContext @ 0x558581269880] Statistics: 177997331 bytes read, 0 seeks
